<svg xmlns="http://www.w3.org/2000/svg" xmlns:xlink="http://www.w3.org/1999/xlink" width="500" zoomAndPan="magnify" viewBox="0 0 375 374.999991" height="500" preserveAspectRatio="xMidYMid meet" version="1.0"><defs><g/></defs><rect x="-37.5" width="450" fill="#ffffff" y="-37.499999" height="449.999989" fill-opacity="1"/><rect x="-37.5" width="450" fill="#f5f5f5" y="-37.499999" height="449.999989" fill-opacity="1"/><g fill="#000000" fill-opacity="1"><g transform="translate(124.410954, 223.537606)"><g><path d="M 45.578125 -76 L 82.34375 -39.421875 C 88.40625 -33.421875 93.5625 -29.316406 97.8125 -27.109375 C 102.070312 -24.898438 106.347656 -23.675781 110.640625 -23.4375 L 110.640625 -20.671875 L 63.21875 -20.671875 L 63.21875 -23.4375 C 66.039062 -23.4375 68.078125 -23.910156 69.328125 -24.859375 C 70.585938 -25.804688 71.21875 -26.863281 71.21875 -28.03125 C 71.21875 -29.1875 70.988281 -30.238281 70.53125 -31.1875 C 70.070312 -32.144531 68.523438 -33.878906 65.890625 -36.390625 L 31.515625 -70.484375 L 31.515625 -38.3125 C 31.515625 -33.289062 31.820312 -29.953125 32.4375 -28.296875 C 32.925781 -27.078125 33.96875 -26.035156 35.5625 -25.171875 C 37.644531 -24.015625 39.878906 -23.4375 42.265625 -23.4375 L 45.578125 -23.4375 L 45.578125 -20.671875 L 3.125 -20.671875 L 3.125 -23.4375 L 6.609375 -23.4375 C 10.773438 -23.4375 13.78125 -24.628906 15.625 -27.015625 C 16.789062 -28.546875 17.375 -32.3125 17.375 -38.3125 L 17.375 -102.734375 C 17.375 -107.753906 17.066406 -111.09375 16.453125 -112.75 C 15.960938 -113.976562 14.953125 -115.019531 13.421875 -115.875 C 11.273438 -117.039062 9.003906 -117.625 6.609375 -117.625 L 3.125 -117.625 L 3.125 -120.375 L 45.578125 -120.375 L 45.578125 -117.625 L 42.265625 -117.625 C 39.941406 -117.625 37.707031 -117.070312 35.5625 -115.96875 C 34.03125 -115.175781 32.972656 -114 32.390625 -112.4375 C 31.804688 -110.875 31.515625 -107.640625 31.515625 -102.734375 L 31.515625 -72.234375 C 32.492188 -73.148438 35.832031 -76.242188 41.53125 -81.515625 C 56.113281 -94.867188 64.9375 -103.78125 68 -108.25 C 69.289062 -110.207031 69.9375 -111.921875 69.9375 -113.390625 C 69.9375 -114.492188 69.425781 -115.472656 68.40625 -116.328125 C 67.394531 -117.191406 65.664062 -117.625 63.21875 -117.625 L 60.921875 -117.625 L 60.921875 -120.375 L 97.5 -120.375 L 97.5 -117.625 C 95.351562 -117.5625 93.390625 -117.269531 91.609375 -116.75 C 89.835938 -116.226562 87.679688 -115.1875 85.140625 -113.625 C 82.597656 -112.0625 79.457031 -109.566406 75.71875 -106.140625 C 74.675781 -105.160156 69.710938 -100.132812 60.828125 -91.0625 Z M 45.578125 -76 "/></g></g></g><path stroke-linecap="butt" transform="matrix(3.015338, 0, 0, 3.015338, 162.786308, 95.959887)" fill="none" stroke-linejoin="miter" d="M 1.067077 48.138348 L 1.067077 47.22764 L 2.317196 47.22764 C 3.714997 47.22764 4.700842 46.77941 5.273436 45.885543 C 5.63746 45.356995 5.82012 44.158695 5.82012 42.291937 L 5.82012 20.92721 C 5.82012 18.877792 5.598596 17.588809 5.155549 17.060262 C 4.505228 16.347759 3.558247 15.991507 2.317196 15.991507 L 1.067077 15.991507 L 1.067077 15.080799 L 14.530793 15.080799 C 19.469087 15.080799 23.22333 15.644324 25.792227 16.772669 C 28.36242 17.901015 30.432565 19.771659 32.002663 22.384602 C 33.583124 24.988477 34.373355 28.00949 34.373355 31.446345 C 34.373355 36.038751 32.971667 39.874608 30.166996 42.956508 C 27.042346 46.4115 22.268576 48.138348 15.845685 48.138348 Z M 10.507094 45.768952 C 12.564285 46.211999 14.291133 46.432227 15.688935 46.432227 C 19.472973 46.432227 22.602805 45.109562 25.077133 42.461642 C 27.559235 39.805949 28.800286 36.212343 28.800286 31.680824 C 28.800286 27.115622 27.559235 23.51813 25.077133 20.887051 C 22.602805 18.257267 19.413382 16.942375 15.506275 16.942375 C 14.048882 16.942375 12.381625 17.172967 10.507094 17.632855 Z M 10.507094 45.768952 " stroke="#07363c" stroke-width="2.599998" stroke-opacity="1" stroke-miterlimit="4"/><g fill="#ffffff" fill-opacity="1"><g transform="translate(162.786308, 261.803482)"><g><path d="M 3.21875 -20.671875 L 3.21875 -23.4375 L 6.984375 -23.4375 C 11.210938 -23.4375 14.179688 -24.78125 15.890625 -27.46875 C 16.992188 -29.0625 17.546875 -32.675781 17.546875 -38.3125 L 17.546875 -102.734375 C 17.546875 -108.921875 16.875 -112.8125 15.53125 -114.40625 C 13.570312 -116.550781 10.722656 -117.625 6.984375 -117.625 L 3.21875 -117.625 L 3.21875 -120.375 L 43.828125 -120.375 C 58.710938 -120.375 70.03125 -118.671875 77.78125 -115.265625 C 85.53125 -111.867188 91.78125 -106.234375 96.53125 -98.359375 C 101.28125 -90.492188 103.65625 -81.382812 103.65625 -71.03125 C 103.65625 -57.1875 99.425781 -45.609375 90.96875 -36.296875 C 81.539062 -25.878906 67.144531 -20.671875 47.78125 -20.671875 Z M 31.703125 -27.84375 C 37.890625 -26.5 43.097656 -25.828125 47.328125 -25.828125 C 58.722656 -25.828125 68.15625 -29.820312 75.625 -37.8125 C 83.101562 -45.8125 86.84375 -56.640625 86.84375 -70.296875 C 86.84375 -84.078125 83.101562 -94.9375 75.625 -102.875 C 68.15625 -110.8125 58.539062 -114.78125 46.78125 -114.78125 C 42.363281 -114.78125 37.335938 -114.070312 31.703125 -112.65625 Z M 31.703125 -27.84375 "/></g></g></g></svg>