<svg xmlns="http://www.w3.org/2000/svg" xmlns:xlink="http://www.w3.org/1999/xlink" width="500" zoomAndPan="magnify" viewBox="0 0 375 374.999991" height="500" preserveAspectRatio="xMidYMid meet" version="1.0"><defs><g/></defs><rect x="-37.5" width="450" fill="#ffffff" y="-37.499999" height="449.999989" fill-opacity="1"/><rect x="-37.5" width="450" fill="#ffffff" y="-37.499999" height="449.999989" fill-opacity="1"/><g fill="#000000" fill-opacity="1"><g transform="translate(131.727449, 197.530956)"><g><path d="M 41.171875 -68.65625 L 74.375 -35.609375 C 79.851562 -30.179688 84.515625 -26.472656 88.359375 -24.484375 C 92.203125 -22.492188 96.0625 -21.390625 99.9375 -21.171875 L 99.9375 -18.671875 L 57.109375 -18.671875 L 57.109375 -21.171875 C 59.648438 -21.171875 61.488281 -21.597656 62.625 -22.453125 C 63.757812 -23.304688 64.328125 -24.257812 64.328125 -25.3125 C 64.328125 -26.363281 64.117188 -27.316406 63.703125 -28.171875 C 63.296875 -29.035156 61.898438 -30.601562 59.515625 -32.875 L 28.46875 -63.671875 L 28.46875 -34.609375 C 28.46875 -30.078125 28.742188 -27.0625 29.296875 -25.5625 C 29.742188 -24.457031 30.6875 -23.519531 32.125 -22.75 C 34.007812 -21.695312 36.03125 -21.171875 38.1875 -21.171875 L 41.171875 -21.171875 L 41.171875 -18.671875 L 2.828125 -18.671875 L 2.828125 -21.171875 L 5.984375 -21.171875 C 9.742188 -21.171875 12.453125 -22.25 14.109375 -24.40625 C 15.160156 -25.789062 15.6875 -29.191406 15.6875 -34.609375 L 15.6875 -92.796875 C 15.6875 -97.335938 15.410156 -100.359375 14.859375 -101.859375 C 14.410156 -102.960938 13.5 -103.898438 12.125 -104.671875 C 10.1875 -105.722656 8.140625 -106.25 5.984375 -106.25 L 2.828125 -106.25 L 2.828125 -108.734375 L 41.171875 -108.734375 L 41.171875 -106.25 L 38.1875 -106.25 C 36.082031 -106.25 34.0625 -105.75 32.125 -104.75 C 30.738281 -104.03125 29.78125 -102.960938 29.25 -101.546875 C 28.726562 -100.140625 28.46875 -97.222656 28.46875 -92.796875 L 28.46875 -65.25 C 29.351562 -66.070312 32.367188 -68.863281 37.515625 -73.625 C 50.691406 -85.6875 58.660156 -93.738281 61.421875 -97.78125 C 62.585938 -99.550781 63.171875 -101.101562 63.171875 -102.4375 C 63.171875 -103.425781 62.710938 -104.304688 61.796875 -105.078125 C 60.890625 -105.859375 59.328125 -106.25 57.109375 -106.25 L 55.03125 -106.25 L 55.03125 -108.734375 L 88.078125 -108.734375 L 88.078125 -106.25 C 86.140625 -106.195312 84.367188 -105.929688 82.765625 -105.453125 C 81.160156 -104.984375 79.207031 -104.046875 76.90625 -102.640625 C 74.613281 -101.234375 71.78125 -98.976562 68.40625 -95.875 C 67.457031 -94.988281 62.972656 -90.453125 54.953125 -82.265625 Z M 41.171875 -68.65625 "/></g></g></g><path stroke-linecap="butt" transform="matrix(2.723839, 0, 0, 2.723839, 166.392987, 82.286457)" fill="none" stroke-linejoin="miter" d="M 1.067535 48.137868 L 1.067535 47.227217 L 2.318068 47.227217 C 3.714879 47.227217 4.700104 46.779778 5.273743 45.886336 C 5.638004 45.357154 5.820134 44.158248 5.820134 42.292488 L 5.820134 20.927305 C 5.820134 18.87798 5.599283 17.588727 5.156147 17.059545 C 4.505067 16.348232 3.558562 15.992576 2.318068 15.992576 L 1.067535 15.992576 L 1.067535 15.08049 L 14.530841 15.08049 C 19.469873 15.08049 23.222905 15.645525 25.792808 16.772725 C 28.361276 17.90136 30.432113 19.772857 32.003884 22.384348 C 33.582825 24.988669 34.373012 28.008878 34.373012 31.446409 C 34.373012 36.038389 32.970465 39.8746 30.166805 42.956475 C 27.041907 46.411215 22.269231 48.137868 15.845909 48.137868 Z M 10.506764 45.76874 C 12.564694 46.211876 14.291347 46.432727 15.689592 46.432727 C 19.474175 46.432727 22.603375 45.109055 25.077193 42.461711 C 27.559616 39.805763 28.80011 36.211915 28.80011 31.681601 C 28.80011 27.115435 27.559616 23.517285 25.077193 20.88715 C 22.603375 18.257016 19.412509 16.941949 15.507462 16.941949 C 14.048985 16.941949 12.382563 17.172838 10.506764 17.633184 Z M 10.506764 45.76874 " stroke="#07363c" stroke-width="2.599998" stroke-opacity="1" stroke-miterlimit="4"/><g fill="#ffffff" fill-opacity="1"><g transform="translate(166.392987, 232.09759)"><g><path d="M 2.90625 -18.671875 L 2.90625 -21.171875 L 6.3125 -21.171875 C 10.125 -21.171875 12.804688 -22.382812 14.359375 -24.8125 C 15.359375 -26.257812 15.859375 -29.523438 15.859375 -34.609375 L 15.859375 -92.796875 C 15.859375 -98.390625 15.25 -101.90625 14.03125 -103.34375 C 12.257812 -105.28125 9.6875 -106.25 6.3125 -106.25 L 2.90625 -106.25 L 2.90625 -108.734375 L 39.59375 -108.734375 C 53.039062 -108.734375 63.265625 -107.195312 70.265625 -104.125 C 77.265625 -101.0625 82.910156 -95.972656 87.203125 -88.859375 C 91.492188 -81.742188 93.640625 -73.515625 93.640625 -64.171875 C 93.640625 -51.660156 89.816406 -41.195312 82.171875 -32.78125 C 73.648438 -23.375 60.648438 -18.671875 43.171875 -18.671875 Z M 28.640625 -25.15625 C 34.222656 -23.9375 38.925781 -23.328125 42.75 -23.328125 C 53.039062 -23.328125 61.5625 -26.9375 68.3125 -34.15625 C 75.0625 -41.375 78.4375 -51.15625 78.4375 -63.5 C 78.4375 -75.945312 75.0625 -85.753906 68.3125 -92.921875 C 61.5625 -100.085938 52.875 -103.671875 42.25 -103.671875 C 38.269531 -103.671875 33.734375 -103.035156 28.640625 -101.765625 Z M 28.640625 -25.15625 "/></g></g></g></svg>